<?xml version="1.0" encoding="UTF-8"?>
<svg id="Layer_1" data-name="Layer 1" xmlns="http://www.w3.org/2000/svg" viewBox="0 0 700 640">
  <path d="M694.19,255.18l-151.09-125.36,89.27-27.82L492.24,4.79H207.68L67.55,102l89.27,27.82L5.73,255.18l63.92,11.72C15.79,342.22,8.94,433.26,8.94,433.26l109.69-54.15,53.83,63.21s26.52-81.16,69.55-125.42c-40.74,120.95-29.27,235.87-29.27,235.87l67.48-37.18,69.77,119.62,69.77-119.62,67.48,37.18s11.48-114.92-29.27-235.87c43.06,44.25,69.55,125.42,69.55,125.42l53.83-63.21,109.69,54.15s-6.85-91.03-60.68-166.38l63.92-11.72-.08.03Z"/>
</svg>